<svg xmlns="http://www.w3.org/2000/svg" viewBox="0 0 1112.81 522.68"><defs><style>.cls-1{opacity:0.15;}.cls-2{fill:#d16c4c;}.cls-3{fill:#eba994;}.cls-4{fill:#fce9e3;}</style></defs><title>humo</title><g id="Capa_2" data-name="Capa 2"><g id="Capa_1-2" data-name="Capa 1"><g class="cls-1"><path class="cls-2" d="M1112.81,2.64c-13,0-11.94,26.05-11.94,26.05-78.16-62.13-147.3-10.52-147.3,34.07-21.67-14.92-48.87-2.09-55,15.39-47.2-31.74-124-5.46-123.52,83.61C744.26,133.05,667.58,144,678,217.2c-24-13.59-42.73,12.22-30.79,30.8-23.73-18.53-52.59,21.48-72.36-2.32-19.45-23.41-13.69-40.34-13.69-58h-9.49c0,17.65,5.76,34.58-13.69,58-19.78,23.8-48.63-16.21-72.36,2.32,11.93-18.58-6.75-44.39-30.79-30.8,10.41-73.19-66.27-84.15-97.09-55.44.43-89.07-76.32-115.35-123.52-83.61-6.1-17.48-33.3-30.31-55-15.39,0-44.59-69.14-96.2-147.31-34.07,0,0,1.1-26-11.93-26v224L13.66,355.05,0,515.79H1112.81l-14.75-177.4,14.75-111.79Z"/><path class="cls-3" d="M1112.81,85c-25.24,0-56.31,28.68-56.31,48.75-39.57-41.29-97.5-10.32-102.09,20.08-2.39-6.47-21.13-18.05-27.07,2.62-41.84-13.43-52.85,24.8-41.49,56.3-46.49-62-125.51-21.17-115.48,42.53-3.32-14.12-19.85-7.4-18.1,5-43.67-27.11-81.29,7.18-72.91,42.82-6.27-14.16-21.43-14.22-26-2.55,1.11-21.21-16.77-30.83-30.4-28.88a35.74,35.74,0,0,1-35.27-17c-9.43-15.48-18-37.49-18-66.32L556.4,198.66l-13.3-10.29c0,28.83-8.55,50.84-18,66.32a35.74,35.74,0,0,1-35.27,17c-13.63-1.95-31.51,7.67-30.4,28.88-4.57-11.67-19.73-11.61-26,2.55,8.38-35.64-29.24-69.93-72.91-42.82,1.75-12.41-14.78-19.13-18.1-5,10-63.7-69-104.51-115.48-42.53,11.36-31.5.35-69.73-41.49-56.3h0c-5.94-20.67-24.68-9.09-27.07-2.62-4.59-30.4-62.52-61.37-102.1-20.08C56.3,113.69,25.24,85,0,85v340.7l47.43-1.81L0,515.79H1112.81l-47.43-91.89,47.43,1.81Z"/><path class="cls-4" d="M1078.65,264.68c-5.55-16.62-34.84-17.42-37.21,5.54-42.76-33.25-101.34,2.38-114.1,40.7-41.38-30.68-67.16-1.09-73.29,39.89-2-26.65-49.93-31.32-51.83,3.11-19.68-48.34-90.24-52.34-106.3-14.6-3.46-16.51-24.52-21-34-7.41,1.46-23.89-17.28-36.36-37.38-38a43.63,43.63,0,0,1-33.75-21.45c-13.12-22-29.68-55.22-29.68-109.54l-4.75-8.07L551.66,163c0,54.32-16.57,87.51-29.69,109.54a43.62,43.62,0,0,1-33.74,21.45c-20.1,1.61-38.84,14.08-37.38,38-9.45-13.59-30.5-9.1-34,7.41-16.06-37.74-86.61-33.74-106.29,14.6-1.9-34.43-49.86-29.76-51.83-3.11-6.13-41-31.91-70.57-73.29-39.89-12.76-38.32-71.34-74-114.1-40.7-2.37-23-31.66-22.16-37.21-5.54-1.58-23-21.49-45.92-34.16-49.08V522.68H1112.81V215.6C1100.14,218.76,1080.23,241.72,1078.65,264.68Z"/></g></g></g></svg>