<svg xmlns="http://www.w3.org/2000/svg" viewBox="0 0 80.78 76.33"><defs><style>.cls-1{opacity:0.8;}.cls-2{fill:#fff;}</style></defs><title>tnetworks-logo</title><g id="Capa_2" data-name="Capa 2"><g id="Capa_1-2" data-name="Capa 1"><g class="cls-1"><polygon class="cls-2" points="44.04 12.17 44.04 19.68 39.75 16.18 39.75 40.82 38.24 42.51 38.24 15.22 37.12 14.35 37.12 43.77 35.9 45.14 35.9 13.48 34.79 12.6 34.79 44.47 28.27 37.95 28.27 18.8 20.23 18.8 20.79 12.17 44.04 12.17"/><path class="cls-2" d="M34.8,0S45.27,3.24,60.89,7.91c0,0,.17,16-2.12,24S47.21,51.28,35.36,60.92V55s10.89-8.34,16.78-18.57S56.39,11.1,56.39,11.1L34.8,4.55Z"/><path class="cls-2" d="M48.32,66.2a4.78,4.78,0,0,0-5,5.12,4.61,4.61,0,0,0,4.9,5,5.06,5.06,0,0,0,.12-10.12Zm2.9,5.56a4.93,4.93,0,0,1-.35,1.71,2.69,2.69,0,0,1-4.59.76,5.21,5.21,0,0,1-.21-5.81,2.69,2.69,0,0,1,4.26,0A4.9,4.9,0,0,1,51.22,71.76Z"/><path class="cls-2" d="M40,67c-.58,2-1.17,4-1.76,6a.92.92,0,0,1-.32.61c-.07-.22-.13-.41-.18-.6l-1.56-5.94c-.06-.25-.11-.53-.39-.64a1.37,1.37,0,0,0-1.55.77c-.43,1.77-.85,3.54-1.28,5.3a3.46,3.46,0,0,1-.37,1.08c-.1-.35-.15-.55-.21-.75q-.72-2.66-1.45-5.31c-.35-1.25-.46-1.3-1.73-1-.44.11-.53.28-.36.7.52,1.35.95,2.74,1.37,4.13s.89,2.94,1.32,4.42c.12.41.33.52.76.48a1.2,1.2,0,0,0,1.15-1c.47-1.72,1-3.43,1.48-5.14.05-.19,0-.43.25-.55a.91.91,0,0,1,.21.53l1.47,5.64c.05.21.06.46.33.54a1.37,1.37,0,0,0,1.54-.76c.35-1,.71-1.93,1-2.91.6-1.75,1.18-3.51,1.76-5.27.09-.25.2-.51,0-.74A.92.92,0,0,0,40,67Z"/><path class="cls-2" d="M16.65,75c-.91,0-1.82,0-2.73,0-.68,0-.74-.13-.74-.79s0-1.09,0-1.63c0-.79,0-.82.83-.83.61,0,1.22,0,1.83,0a.78.78,0,0,0,.66-.82c-.06-.41-.41-.3-.67-.3-.7,0-1.4,0-2.1,0-.39,0-.57-.18-.56-.58,0-.57,0-1.15,0-1.73,0-.39.14-.58.55-.56a11,11,0,0,0,1.15,0,7.88,7.88,0,0,0,1.2-.1c.46-.07.52-.48.59-.83s-.13-.28-.3-.28a43.37,43.37,0,0,0-4.56.08c-.4,0-.5.27-.49.64,0,1.4,0,2.8,0,4.2h0v4.24c0,.32,0,.56.44.56,1.38,0,2.76,0,4.14,0A1.12,1.12,0,0,0,17,75.54c.07-.15.21-.31.1-.48S16.8,75,16.65,75Z"/><path class="cls-2" d="M7.92,66.45a1.58,1.58,0,0,0-1.07.06c-.3.11-.25.39-.25.63,0,1.33,0,2.66,0,4v2.36c-.28-.11-.32-.32-.42-.47-1.23-2-2.45-4-3.82-5.84A1.75,1.75,0,0,0,.64,66.4c-.38,0-.57.19-.57.58,0,2.92,0,5.84-.07,8.76,0,.18,0,.35.22.43a.94.94,0,0,0,1.29-.82c0-2.07.08-4.15-.06-6.23,0-.13-.08-.28.09-.38.17.06.21.23.28.36a74.76,74.76,0,0,0,4,6.49,1.52,1.52,0,0,0,1.67.67A.51.51,0,0,0,8,75.67c0-3,0-5.9,0-8.86C8.05,66.68,8.08,66.49,7.92,66.45Z"/><path class="cls-2" d="M26.41,66.39c-2.15,0-4.3,0-6.45,0a1,1,0,0,0-1.08.72c-.18.42-.08.59.38.6s1.15,0,1.73,0c.78,0,.8,0,.8.79v6.45c0,1.4-.11,1.25,1.27,1.27.47,0,.61-.18.6-.62,0-1.21,0-2.41,0-3.62h0c0-1.24,0-2.48,0-3.72,0-.41.15-.57.55-.56s1.05,0,1.57,0a1,1,0,0,0,1-.66C27.05,66.5,27,66.4,26.41,66.39Z"/><path class="cls-2" d="M79.71,71.27c-.45-.31-.92-.58-1.38-.87A6.31,6.31,0,0,1,77,69.51a1.1,1.1,0,0,1,.53-1.94,2,2,0,0,1,.93,0c.34.09.67.2,1,.3s.65-.15.82-.48a.37.37,0,0,0-.17-.57,4.32,4.32,0,0,0-3.44-.37,2.67,2.67,0,0,0-1,4.47,5.93,5.93,0,0,0,1.45,1,6.61,6.61,0,0,1,1.27.83,1.27,1.27,0,0,1,.45,1.36,1.23,1.23,0,0,1-1.1.85,2.61,2.61,0,0,1-1,0,5.52,5.52,0,0,1-1.42-.53c-.26-.14-.41-.08-.5.22a.91.91,0,0,0,.49,1.26,3.81,3.81,0,0,0,2,.43A4,4,0,0,0,79.13,76,2.74,2.74,0,0,0,79.71,71.27Z"/><path class="cls-2" d="M72.8,75.63c-1.07-1.4-2.14-2.8-3.23-4.19a.54.54,0,0,1,0-.82c.76-.84,1.5-1.7,2.25-2.56.29-.34.59-.69.86-1s.17-.41-.12-.55a1.41,1.41,0,0,0-1.6.35l-3.22,3.87c-.1.12-.19.32-.36.26s-.11-.27-.11-.41c0-1,0-2,0-2.94,0-1.29,0-1.27-1.27-1.14-.51,0-.68.22-.67.74,0,2.55,0,5.11,0,7.66,0,1.46-.17,1.36,1.41,1.35.42,0,.54-.18.53-.57,0-1.14,0-2.27,0-3.41a.82.82,0,0,1,.09-.58,1,1,0,0,1,.38.41c.81,1,1.66,2,2.41,3.11a2.23,2.23,0,0,0,2.37,1c.16,0,.39.07.48-.1S72.91,75.78,72.8,75.63Z"/><path class="cls-2" d="M63,75.81c-.74-1.19-1.46-2.38-2.21-3.56-.4-.63-.42-.62.19-1a2.53,2.53,0,0,0,1.11-2.73,2.37,2.37,0,0,0-2-2,9.68,9.68,0,0,0-2.15-.13h-1c-1.07,0-1,0-1,1.08,0,2.69,0,5.39,0,8.08,0,.63,0,.67.6.67l.53,0c.63-.09.76-.25.76-.89,0-.88,0-1.75,0-2.62,0-.5.2-.62.67-.46a1.58,1.58,0,0,1,.87.85c.35.63.7,1.26,1,1.9a2.17,2.17,0,0,0,2.46,1.26C63.06,76.18,63.21,76.14,63,75.81Zm-3.1-5.41a1.79,1.79,0,0,1-1.8.7c-.27,0-.36-.18-.36-.42V69.26c0-.45,0-.9,0-1.35a.4.4,0,0,1,.44-.46,1.73,1.73,0,0,1,1.76.77A2,2,0,0,1,59.92,70.4Z"/></g></g></g></svg>